<svg version="1" xmlns="http://www.w3.org/2000/svg" width="212" height="212" viewBox="0 0 159.000000 159.000000"><path d="M71.5 24.5c-12.3 2.2-28.9 11.1-37.7 20.2-5.5 5.8-12.9 17-17 26-8.7 19.4-1.1 45.6 16.4 56.4 6.8 4.1 29.2 9.9 38.6 9.9 8.3 0 23.4-5 35.2-11.6 16.5-9.3 31.3-28.1 37.9-48.3 3-9.1 2.9-22.4-.1-28.8-3.1-6.5-8.8-11.9-14-13.4-5.3-1.4-14.9-.6-18 1.5-2.7 1.9-3.8 2-3.8.3C109 34.6 98.4 25 94.9 24c-4.5-1.3-14.8-1.1-23.4.5zm22 3.6c3.7 1.1 3.8 1.2 1.7 2-1.3.5-2 1.3-1.7 1.9.9 1.4 5.5 1.3 5.5-.2 0-.6 1.1-.1 2.4 1.1 2 1.9 2.3 2.7 1.4 4.1-.6.9-.8 2.6-.4 3.6.7 1.8.8 1.8 2.1.1.8-1.1 1.6-1.4 1.9-.8.9 1.4-4 4.5-5.9 3.7-.8-.3-2.2-.3-3 0-2.1.8-1.9 4.4.2 4.4 1.3 0 1.4.3.5 1.2-.9.9-2.1.9-5 0-7.2-2.2-12-1-7.4 1.8 1.6.9 1.5 1.2-.7 3-1.7 1.5-2.7 1.8-3.5 1-1.7-1.7-2.4-1.2-3.6 2.4-.6 1.8-2 4.2-3 5.1-1.1 1-2 2.6-2 3.5 0 1-2.9 3.3-7.5 5.9-4.1 2.3-7.7 4.7-8.1 5.2-1.2 2 .4 1.9 4-.2 6.7-3.9 9-.2 3.1 5-3.9 3.4-5.8 4.2-3.2 1.3 2.1-2.3 2.1-3.2.3-3.2-2.5 0-4.8 3-3.6 4.5.8 1 .4 2.1-1.9 4.4C54.4 90.7 53 93 53 94c0 2.5 1.6 2.6 2.9.3 1.2-2.1 2.4-1.3 1.5 1.1-.3.9-1.6 1.6-2.9 1.6-1.8 0-2.4.7-2.8 3.2-.3 2.1.1 3.9 1 5 1 1.1 1.1 1.8.4 2.3-1.7 1-2.8-.2-3.4-3.4-.6-2.8-4.2-5.9-5.4-4.7-.3.3.2 2.1 1.1 4 .9 1.9 1.6 4.1 1.6 5 0 1.8 3 3.6 5.9 3.6 2.7 0 2.8 3 .1 3.7-2 .5-2.8 2.3-1 2.3.6 0 1 .9 1 2s-.4 2-.9 2c-.6 0-.6 1.2-.1 3 1.3 4.7-.9 2.6-3.5-3.4-2.2-4.9-2.3-5-3-2.4-.4 1.5-.2 4.2.4 5.9.9 2.7.9 3-.4 1.9-.8-.7-2-3.1-2.7-5.4-1.8-6.4-3-6.8-2.6-.8.1 2.8 0 5.2-.4 5.2-.8 0-1.2-1.4-3.2-10.9-1.5-7.5-2.8-6.7-2.7 1.6.1 7.6-2.1 5.6-2.6-2.4-.3-3.2-.7-6.5-.9-7.3-.8-2.3-2.4.8-2.4 4.7 0 5.5-1.7 3.7-2.2-2.4-.5-5.4.1-9.6 1.7-13.7.6-1.4.4-1.8-.6-1.4-.8.2-2.2 3-3.3 6.1-1 3.2-2.1 5.5-2.4 5.2-.9-.9-.3-9.9.9-12.8 1.5-3.7.2-4.8-2.1-1.9l-1.9 2.3.2-5.3c.1-2.9.6-5.8 1-6.5.4-.6.4-1.9.1-2.8-.9-2.2 5.2-14.1 12.1-23.8 6-8.4 10.5-12.1 23.2-19.2 12.2-6.7 29.3-10 38.8-7.4zM127 39c5.2 1 9.4 3.5 8.5 5-.3.4.1 1 .9 1.3.9.4 1.2 1.4.9 2.6-.4 1.6-.1 2.1 1.6 2.1 1.2 0 2.1.6 2.1 1.5 0 .8-.6 1.2-1.4.9-2.2-.8-2.8 1.3-.9 2.8 1 .7 2.4 2.1 3.2 3 1.2 1.7 1.1 1.7-1.8 1.2-3.7-.8-4 .1-.6 2.8 1.4 1.1 2.5 2.7 2.5 3.5 0 1.4-.2 1.4-1.8 0-2-1.8-4.2-2.2-4.2-.8 0 .5.7 1.4 1.5 2.1.8.7 1.5 2.2 1.5 3.3 0 1.9-.1 1.9-1.8.4-1-1-2.4-1.7-3-1.7-1.9 0-1.4 1.8.8 3 1.3.7 2 2.1 2 4 0 3.7-.5 3.7-3.5.2-1.3-1.5-2.6-2.4-3-2-.4.4 0 1.4.9 2.3 1 1 1.6 3.3 1.6 6.1v4.6l-2.6-3.1c-1.4-1.7-3.2-3.1-4-3.1-2 0-1.7 1.7.5 2.3 2.3.6 2.9 3.8 2.1 10.2-.6 3.8-.8 4.2-.9 1.7-.1-3.6-3.9-8.2-6.7-8.2-1.3 0-1.1.5 1 2.5 2.7 2.5 3.5 7.5 1.6 10.5-.8 1.2-1 .9-1-1.2 0-3-4.4-8.8-5.7-7.5-.4.5 0 1.4 1 2.1 1.3 1 1.7 2.7 1.6 7.2 0 6.6-1.7 12.5-1.8 6.6-.1-3.6-3.6-11.2-5.1-11.2-1.3 0-1.2 1 .5 4 1.6 2.9 2.1 14.5.5 13.5-.5-.3-1-1.3-1-2.2 0-.9-1-3.5-2.2-5.9-1.5-3.1-2.8-4.4-4.2-4.4-1.9.1-1.9.2-.5 1.3 2.7 2.1 3.9 5.4 3.9 11 0 3.7-.4 5.7-1.4 6-1 .4-1.5-.7-2-4.1-.4-3.3-1.5-5.6-3.8-7.9-3.2-3.4-4.8-4.1-4.8-2.3 0 .5.6 1 1.4 1 3.5 0 4.7 16.1 1.4 18.1-1 .6-1.5-.6-2-5-.7-6.1-3.1-12.1-4.8-12.1-1.3 0-1.3 1.7 0 2.5.6.3 1 4.4 1 9 0 6.4-.3 8.4-1.5 8.9-1.2.4-1.5-.4-1.5-4.5 0-5.7-3.5-14.9-5.6-14.9-1.7 0-1.9 1.6-.3 2.5 2.1 1.4 3 6 2.3 12.7-.6 5.7-1 6.8-2.5 6.8-1.6 0-1.9-.8-1.9-4.3-.1-2.3-.7-5.6-1.5-7.2-1.3-2.8-1.3-2.6-1.4 5.2-.1 4.8-.5 8.3-1.1 8.3-.5 0-1-1-1-2.3 0-3.9-3.6-15.1-5-15.5-1-.4-1.1.1-.5 1.9.4 1.3 1 5.7 1.2 9.6.4 5.8.2 7.3-.9 7.3-1.4 0-3.8-9.5-3.8-14.9 0-1.2-.6-2.1-1.6-2.1-1.3 0-1.5.7-.8 4.2.4 2.4.7 4.7.7 5.3.1 7.6-1.6 10.1-2.7 4-.9-4.8-2.6-5.4-2.6-1 0 4.3-1.3 3.9-4-1.5-2.1-4.1-1.9-12.2.4-15 1.9-2.6 6.3-4.3 9-3.6 5.6 1.4 1.4-3.4-4.6-5.4-2.1-.6-3.8-1.5-3.8-2 0-1.7 3.3-8.7 5.7-11.8 2.4-3.1 2.6-3.2 4.3-1.7 1 .9 2.4 1.4 2.9 1 1.7-1 1.3-2.5-1-3.3-2.1-.8-2.1-.9.6-4 2.2-2.7 2.9-3 4.5-2 2.4 1.5 3.8.3 2.3-2.1-2-3.1 3.2-9.8 13.7-17.9 3.6-2.8 9-7.9 12-11.3 3.8-4.3 5.6-5.8 5.8-4.7.4 2 3.2 3.2 4.5 1.9 1.2-1.2 0-3.1-2.1-3.1-2.8 0 0-1.9 4.3-2.9 2.2-.5 4.1-.9 4.1-1 .1-.1 2.5.4 5.4.9zM82 60.9c0 .5-.7 1.4-1.5 2.1-1.2 1-1.5 1-1.5-.2 0-.8.3-1.8.7-2.1.9-1 2.3-.9 2.3.2z"/><path d="M82.5 29.9c-.7 1.2 1.2 2.4 2.5 1.6 1.1-.7.4-2.5-1-2.5-.5 0-1.1.4-1.5.9zM72.2 31.2c.6 1.8 2.8 2.1 2.8.4 0-.9-.7-1.6-1.6-1.6-.9 0-1.4.5-1.2 1.2zM77.2 33.1c.2.6.8 1 1.3 1s1.1-.4 1.3-1c.2-.6-.4-1.1-1.3-1.1s-1.5.5-1.3 1.1zM66.2 35.2c.5 1.5 2.8 1.8 2.9.3 0-.6-.7-1.2-1.7-1.3-1-.3-1.5.1-1.2 1zM89.5 35c-.3.5-1.7 1-3.1 1-1.7 0-2.7.8-3.4 2.5-.5 1.4-2.1 3-3.5 3.5S77 43.6 77 44.5c0 .9-.9 1.5-2.2 1.5-3.8 0-6.8 1.2-6.8 2.5 0 .7-2.6 2.6-5.7 4.2-4 2.1-5.8 3.5-5.6 4.7.1 1.3-1.6 2.6-5.3 4.3-3 1.3-5.2 2.8-4.9 3.3.3.5-2.6 2.5-6.5 4.6-3.8 2-7 4.1-7 4.6 0 .6.8.7 1.8.3.9-.3 3.1-.9 4.7-1.2 1.7-.3 4.2-1.2 5.7-1.9 3.2-1.7 3.8-1.7 3.8-.4 0 .5-.8 1-1.7 1-2.6 0-8.3 3.7-8.3 5.4 0 1.3.7 1.2 4.3-.4 2.3-1.1 5.2-2 6.4-2 2.8 0 3.8-1.7 2.3-3.5-1-1.2-.5-1.8 2.5-3.6 2.4-1.4 3.2-2.4 2.5-2.9-.9-.5-.9-1-.1-1.4.6-.4 1.3.4 1.7 1.9.7 2.9 1.4 3 5.4 1 2.7-1.4 3-1.4 3 0 0 2.1 1.3 1.9 3.8-.8 2.3-2.4 2.1-4-.4-3-1 .4-1.4-.3-1.4-2.5s.8-3.6 2.8-5c2.2-1.7 2.5-2.3 1.4-3.3-1-1.1-1.9-.6-4.7 2.1-1.9 1.9-3.5 4.5-3.5 5.7 0 1.3-1 2.8-2.2 3.4-2.1 1.1-2.2 1.1-1-.4 1.2-1.4 1.2-1.9-.2-3.3-1.5-1.5-1.3-1.8 2.6-3.7 2.9-1.5 4.4-3 4.6-4.5.3-1.8 1-2.2 4.2-2.2 2.5 0 4.3-.6 5.2-1.8.7-.9 2.2-2.2 3.3-2.8 1.1-.6 2.4-2 3-3.2 1.1-2.4 3.9-3.4 5.4-1.9.7.7 1.3.3 2-1.4.5-1.3.7-2.7.4-3.2-.6-1-2.1-.9-2.8.3zM58.2 36.2c.5 1.5 2.8 1.8 2.9.3 0-.6-.7-1.2-1.7-1.3-1-.3-1.5.1-1.2 1zM72 38.5c0 .8.7 1.5 1.5 1.5s1.5-.7 1.5-1.5-.7-1.5-1.5-1.5-1.5.7-1.5 1.5zM96 39.1c0 1.8 2.5 3.7 3.6 2.7.8-.8-.7-3.6-2.2-4.2-.9-.4-1.4.1-1.4 1.5zM63.5 41.9c-.7 1.2 1.2 2.4 2.5 1.6 1.1-.7.4-2.5-1-2.5-.5 0-1.1.4-1.5.9zM89.5 42c-.9 1.4.1 2.7 2.5 3.3 2.3.6 3.3-.5 2.4-2.7-.7-1.8-3.9-2.2-4.9-.6zM43 45.5c0 .8.7 1.5 1.5 1.5s1.5-.7 1.5-1.5-.7-1.5-1.5-1.5-1.5.7-1.5 1.5zM56 45.4c0 1.8 1.7 2.9 3 2.1.8-.5.7-1.1-.1-2.1-1.5-1.8-2.9-1.8-2.9 0zM45.6 48.7c-1.1 1.1-.6 2.3.9 2.3.8 0 1.5-.4 1.5-.9 0-1.3-1.6-2.2-2.4-1.4zM59.5 49.9c-.7 1.2 1.2 2.4 2.5 1.6 1.1-.7.4-2.5-1-2.5-.5 0-1.1.4-1.5.9zM39.2 52.2c.3.7 1.3 1.5 2.2 1.6 1.2.3 1.7-.1 1.4-1-.3-.7-1.3-1.5-2.2-1.6-1.2-.3-1.7.1-1.4 1zM46.9 55c-1.1.7-1 1 .4 1.6 1 .4 2.3.2 2.8-.3 1.4-1.4-1.3-2.4-3.2-1.3z"/><path d="M75.2 55.2c-1.5 1.5-1.6 3.8-.2 3.8 1.2 0 2.3-2.5 1.8-4-.2-.7-.7-.7-1.6.2zM32.5 57c-.7 1.2.2 3 1.6 3 .5 0 .9-.9.9-2 0-2.1-1.5-2.7-2.5-1zM36.7 58.7c-1.2 1.1-.8 2.3.8 2.3.8 0 1.5-.7 1.5-1.5 0-1.6-1.2-2-2.3-.8zM30 63.5c0 .8.7 1.5 1.5 1.5s1.5-.7 1.5-1.5-.7-1.5-1.5-1.5-1.5.7-1.5 1.5zM37 65.4c0 .9.7 1.6 1.6 1.6 1.7 0 1.4-2.2-.4-2.8-.7-.2-1.2.3-1.2 1.2zM54.4 70.1c-.3.6-.2 1.5.3 2 1.3 1.3 6.7-.7 5.8-2.1-.8-1.3-5.2-1.3-6.1.1zM25.2 71.7c.5 2.5 2.8 2.8 2.8.4 0-1.2-.6-2.1-1.6-2.1-.9 0-1.4.7-1.2 1.7zM33.6 77.9c-2 2.2-2.1 4.1-.1 4.1.9 0 1.5 1 1.5 2.6s.5 2.4 1.2 2.2c.7-.3 1.9.2 2.8 1 1.2 1.3 1.5 1.3 2.5-.4 2.1-3.6 5.5-6.4 8-6.4 1.6 0 2.5-.6 2.5-1.5 0-.8-.6-1.5-1.4-1.5-2.6 0-10.4 3.8-11.4 5.5-.7 1.4-1 .9-1.6-2.3-.7-4.9-1.8-5.8-4-3.3zM24.2 83.2c.5 1.5 2.8 1.8 2.9.3 0-.6-.7-1.2-1.7-1.3-1-.3-1.5.1-1.2 1zM49.3 86c-2.5 1-3 2.5-1.2 3.6 1.2.7 8.9-2.5 8.9-3.8 0-1-4.9-.9-7.7.2zM30.5 88c-.7 2.3 5.1 9 7.8 9 3.1 0 2.6-1.9-1.3-5-2.2-1.7-4-3.8-4-4.6 0-2.1-1.8-1.7-2.5.6zM41.4 92.1c-.6 1.1 2.3 4.9 3.8 4.9.4 0 .8-.8.8-1.8 0-2.1-3.6-4.6-4.6-3.1zM29.5 101.9c-.6 1.1.9 2.3 1.9 1.4.9-.9.7-2.3-.3-2.3-.6 0-1.2.4-1.6.9zM34.5 105.1c-.8 2.3-.1 3.4 1.4 2.4 1.3-.8 1.5-4.5.2-4.5-.5 0-1.3.9-1.6 2.1zM39 110.5c0 1.9.5 3.5 1 3.5.6 0 1-1.6 1-3.5s-.4-3.5-1-3.5c-.5 0-1 1.6-1 3.5zM44 113.4c0 .8.5 1.8 1 2.1.6.3 1-.3 1-1.4 0-1.2-.4-2.1-1-2.1-.5 0-1 .6-1 1.4zM122.7 43.7c-1.3 1.2-.7 2.3 1.3 2.3 1.1 0 2-.7 2-1.5 0-1.5-2.1-2.1-3.3-.8zM128.4 49.1c-1 1.7 1.3 3.6 2.7 2.2 1.2-1.2.4-3.3-1.1-3.3-.5 0-1.2.5-1.6 1.1zM104.4 50.1c-1 1.7 1.3 3.6 2.7 2.2 1.2-1.2.4-3.3-1.1-3.3-.5 0-1.2.5-1.6 1.1zM115.2 52.2c.7 1.9 3.8 2.2 3.8.4 0-1-.9-1.6-2.1-1.6-1.2 0-1.9.5-1.7 1.2zM120.6 57.9c-.7 1 2.2 3.7 3 2.8.9-.8-.3-3.7-1.5-3.7-.5 0-1.2.4-1.5.9zM104.2 59.2c.7 2 4.8 2.3 4.8.4 0-1.1-.9-1.6-2.6-1.6-1.6 0-2.4.5-2.2 1.2zM93.7 60.6c-1.4 1.5-.6 3.4 1.4 3.4 1.4 0 1.9-.5 1.7-1.7-.3-1.8-2-2.7-3.1-1.7zM112.2 64.7c.4 2.2 4.3 2.5 4.3.3 0-.8-1.1-1.6-2.3-1.8-1.9-.3-2.3 0-2 1.5zM128 64c0 .5.9 1 2 1s2-.5 2-1c0-.6-.9-1-2-1s-2 .4-2 1zM97.5 65c-.9 1.5.4 3 2.6 3 2.3 0 2.6-2.5.3-3.4-2.1-.8-2.2-.8-2.9.4zM85.6 66.7c-.3.3-.6 1.2-.6 2 0 1.5 3.6 1.8 4.5.4.7-1.2-2.9-3.3-3.9-2.4zM121.4 67.1c-.3.6-.2 1.5.2 1.9 1.2 1.2 3.8-.5 3-1.9-.9-1.4-2.3-1.4-3.2 0zM103.2 70.2c.5 1.5 2.8 1.8 2.9.3 0-.6-.7-1.2-1.7-1.3-1-.3-1.5.1-1.2 1zM92.4 73.1c-.7 1.2 1.5 3.1 2.8 2.3.4-.3.8-1.2.8-2 0-1.7-2.6-1.9-3.6-.3zM111.5 73.9c-.8 1.5.3 3.1 2.1 3.1.9 0 1.4-.7 1.2-1.7-.4-2-2.4-2.8-3.3-1.4zM84.5 76c-.8 1.2 2 2.4 3.5 1.5.5-.3 1-1 1-1.6 0-1.2-3.7-1.2-4.5.1zM102 77.5c0 .8.7 1.5 1.5 1.5s1.5-.7 1.5-1.5-.7-1.5-1.5-1.5-1.5.7-1.5 1.5zM119.2 79.2c.5 1.5 2.8 1.8 2.9.3 0-.6-.7-1.2-1.7-1.3-1-.3-1.5.1-1.2 1zM94.5 81c-.4.7-.3 1.6.3 2.2 1.4 1.4 4.5.2 4-1.5-.6-1.6-3.4-2.1-4.3-.7zM86.7 82.6c-.8.8.1 2.4 1.4 2.4.5 0 .9-.7.9-1.5 0-1.5-1.2-2-2.3-.9zM76.7 85.6c-.9 1 .2 2.4 1.9 2.4.8 0 1.4-.7 1.4-1.5 0-1.5-2.1-2.1-3.3-.9zM104 86.5c0 1 .7 1.5 1.8 1.3 2.1-.4 1.9-2.2-.2-2.6-1-.2-1.6.3-1.6 1.3zM111.5 87c-.7 1.2.2 3 1.6 3 .5 0 .9-.9.9-2 0-2.1-1.5-2.7-2.5-1zM81.2 90.2c.7 1.9 3.8 2.2 3.8.4 0-1-.9-1.6-2.1-1.6-1.2 0-1.9.5-1.7 1.2zM91.2 91.7c.5 2.6 3.8 2.9 3.8.4 0-1.5-.6-2.1-2.1-2.1-1.4 0-1.9.5-1.7 1.7zM69 94.4c0 1.4 3.4 2.8 4.4 1.8 1.5-1.4.4-3.2-1.9-3.2-1.5 0-2.5.6-2.5 1.4zM99.2 95.2c.3.7 1.3 1.5 2.2 1.6 1.2.3 1.7-.1 1.4-1-.3-.7-1.3-1.5-2.2-1.6-1.2-.3-1.7.1-1.4 1zM78.2 97.2c.5 1.5 2.8 1.8 2.9.3 0-.6-.7-1.2-1.7-1.3-1-.3-1.5.1-1.2 1zM64.2 98.4c.1 1 .8 1.7 1.3 1.7 1.5-.1 1.2-2.4-.3-2.9-.9-.3-1.3.2-1 1.2zM68.2 100.7c.4 2.2 3.8 3 3.8 1 0-.8-.7-1.8-1.6-2.1-2.3-.9-2.6-.8-2.2 1.1zM86.4 100.1c-1 1.7 1.3 3.6 2.7 2.2 1.2-1.2.4-3.3-1.1-3.3-.5 0-1.2.5-1.6 1.1zM77.6 103.7c-1.1 1.1-.6 2.3.9 2.3.8 0 1.5-.4 1.5-.9 0-1.3-1.6-2.2-2.4-1.4zM78 112.9c0 .5.7 1.1 1.5 1.5.9.3 1.5 0 1.5-.9 0-.8-.7-1.5-1.5-1.5s-1.5.4-1.5.9zM60 120.4c0 1.7 1.4 2.9 2.3 2 .8-.8-.3-3.4-1.4-3.4-.5 0-.9.6-.9 1.4z"/></svg>